<?xml version="1.0" encoding="UTF-8"?>
<svg width="1024px" height="473px" viewBox="0 0 1024 473" version="1.1" xmlns="http://www.w3.org/2000/svg" xmlns:xlink="http://www.w3.org/1999/xlink">
    <!-- Generator: Sketch 55.1 (78136) - https://sketchapp.com -->
    <title>Oval + Oval Copy + Oval Copy 2 Mask</title>
    <desc>Created with Sketch.</desc>
    <defs>
        <linearGradient x1="100%" y1="47.9177972%" x2="-2.80383884%" y2="46.4247044%" id="linearGradient-1">
            <stop stop-color="#AC111E" stop-opacity="0.763767483" offset="0%"></stop>
            <stop stop-color="#794FBA" stop-opacity="0.82260708" offset="59.8722316%"></stop>
            <stop stop-color="#1536AA" offset="100%"></stop>
        </linearGradient>
        <rect id="path-2" x="0" y="0" width="1024" height="473"></rect>
    </defs>
    <g id="Page-1" stroke="none" stroke-width="1" fill="none" fill-rule="evenodd">
        <g id="Desktop-Copy" transform="translate(0.000000, -0.000000)">
            <g id="Oval-+-Oval-Copy-+-Oval-Copy-2-Mask" transform="translate(0.000000, 0.000000)">
                <mask id="mask-3" fill="white">
                    <use xlink:href="#path-2"></use>
                </mask>
                <use id="Mask" fill="url(#linearGradient-1)" xlink:href="#path-2"></use>
                <g id="flame" opacity="0.2445359" mask="url(#mask-3)" fill="#FFFFFF" fill-rule="nonzero">
                    <g transform="translate(-6.000000, 184.000000)" id="Path">
                        <path d="M52.3439232,316.552446 C36.4323692,298.401289 20.5214931,279.524549 10.3956505,257.017169 C0.270485904,233.057941 -2.62270885,205.468754 2.44021246,179.331415 C7.50313377,153.194076 19.0745567,128.508584 35.709579,107.453732 C34.2633206,125.604889 40.7725003,144.48163 53.0673914,158.276563 C45.8347436,123.426778 57.4068446,85.6726164 80.5503685,58.0834297 C103.693892,30.494243 135.517001,12.3424055 168.785689,0 C152.151345,17.4248928 149.981618,45.0140795 156.490798,68.2477236 C162.999978,91.4806871 176.741805,111.809956 189.036696,132.864808 C201.331587,153.919659 212.903688,175.700775 213.627157,199.660003 C220.136336,187.317597 227.368984,174.974511 231.708437,161.180258 C236.04789,147.385325 238.217617,132.864808 234.601632,119.069874 C247.619991,135.042919 254.852639,151.015284 258.468624,171.344552 C262.084609,191.673821 261.361819,212.728673 259.192092,233.057941 C256.298898,255.565321 250.513186,278.798285 238.218295,297.675025 C223.753677,320.182405 200.609475,336.15477 175.296225,344.867216 C130.454079,352.854079 86.3360799,346.319744 52.3439232,316.552446 Z" fill-opacity="0.680397727"></path>
                        <path d="M106.635783,343.448553 C165.756912,366.645937 224.157496,296.330014 191.712727,241.962208 C191.712727,241.237078 190.991507,241.237078 190.991507,240.512627 C193.875711,270.233468 186.665537,291.98059 172.96641,304.304412 C180.176584,286.906714 175.129394,266.609174 166.477456,249.211476 C157.825517,232.538908 145.56883,217.315923 136.195671,201.367806 C126.822513,184.695239 119.613015,165.84728 123.938984,147 C106.635107,160.048273 94.3784198,179.620684 89.3312305,200.642676 C84.2840411,221.664667 87.1682459,244.862051 96.5414044,264.434461 C85.7264815,256.460743 77.7957633,243.41247 77.0745431,229.639065 C65.5383999,243.41247 58.3289019,261.534619 59.0494461,279.657447 C59.0501221,307.928706 81.4005123,333.300123 106.635783,343.448553 Z" opacity="0.640020461"></path>
                    </g>
                </g>
                <g id="flame-copy" opacity="0.0965401786" mask="url(#mask-3)" fill="#FFFFFF" fill-rule="nonzero">
                    <g transform="translate(731.000000, 35.000000)" id="Path">
                        <path d="M22.4617602,135.535386 C15.6338136,127.76377 8.80615796,119.681488 4.46096879,110.044707 C0.116070579,99.7863024 -1.12545361,87.9736908 1.04714098,76.7827036 C3.21973556,65.5917164 8.18525039,55.0223536 15.3236508,46.0074889 C14.7030341,53.7791049 17.4962453,61.8613874 22.772214,67.7678389 C19.668549,52.8465226 24.6343548,36.6816662 34.5656754,24.8690547 C44.496996,13.0564431 58.1528891,5.28453569 72.429108,0 C65.2909985,7.46065812 64.3599281,19.2732697 67.1531393,29.2210081 C69.9463505,39.1684551 75.8432267,47.8726534 81.1191953,56.8875182 C86.3951639,65.9023829 91.3609697,75.2282056 91.6714235,85.4866105 C94.4646347,80.2020748 97.5682997,74.9172477 99.4304405,69.0110876 C101.292581,63.1046361 102.223652,56.8875182 100.671965,50.9810667 C106.258387,57.8201004 109.362052,64.6588428 110.913739,73.363041 C112.465426,82.0672393 112.155263,91.0821041 111.224193,99.7863024 C109.982669,109.423083 107.499911,119.37053 102.223943,127.452812 C96.0169036,137.089593 86.0852921,143.928335 75.2229011,147.658664 C55.9802945,151.078327 37.0484328,148.28058 22.4617602,135.535386 Z" fill-opacity="0.680397727"></path>
                        <path d="M45.463259,147.052615 C70.8603634,156.977864 95.9479383,126.892444 82.0103967,103.630597 C82.0103967,103.320342 81.7005767,103.320342 81.7005767,103.010378 C82.9395661,115.726757 79.8422379,125.031496 73.9574013,130.304375 C77.0547296,122.860584 74.8865707,114.176064 71.169893,106.732273 C67.4532152,99.5987369 62.1880185,93.0854196 58.1615208,86.2618474 C54.1350231,79.1283111 51.0379852,71.0640102 52.8963241,63 C45.4629686,68.5828434 40.1977719,76.9571085 38.0296131,85.9515925 C35.8614543,94.9460766 37.1004437,104.871325 41.1269413,113.24559 C36.4810941,109.83395 33.0742363,104.251106 32.7644164,98.3580081 C27.8087493,104.251106 24.7117114,112.004862 25.0212409,119.758908 C25.0215313,131.855068 34.6227553,142.7105 45.463259,147.052615 Z" opacity="0.640020461"></path>
                    </g>
                </g>
                <g id="flame-copy-2" opacity="0.0965401786" mask="url(#mask-3)" fill="#FFFFFF" fill-rule="nonzero">
                    <g transform="translate(957.500000, 197.500000) scale(-1, 1) translate(-957.500000, -197.500000) translate(862.000000, 70.000000)" id="Path">
                        <path d="M38.3053231,231.956534 C26.6612357,218.656117 15.0176444,204.824023 7.60754499,188.331546 C0.197941792,170.775215 -1.91930035,150.559001 1.78574935,131.40664 C5.49079904,112.25428 13.9587752,94.165773 26.1322973,78.7376488 C25.0739243,92.0380654 29.837347,105.87016 38.8347577,115.978516 C33.5419005,90.4420354 42.0103728,62.7773483 58.9468214,42.5611339 C75.8832699,22.3449195 99.1714449,9.04400403 123.517497,0 C111.344471,12.7682404 109.756663,32.9844548 114.520086,50.0091078 C119.283509,67.0332621 129.339788,81.9297089 138.337199,97.3578331 C147.33461,112.785957 155.803082,128.746258 156.332517,146.302588 C161.09594,137.258584 166.388797,128.214082 169.564412,118.106224 C172.740027,107.997867 174.327835,97.3578331 171.681654,87.2494765 C181.208499,98.9538632 186.501357,110.657751 189.147537,125.554198 C191.793718,140.450644 191.264779,155.878769 189.676972,170.775215 C187.55973,187.267692 183.325742,204.291847 174.328331,218.123941 C163.743112,234.616417 146.806168,246.320305 128.281912,252.704426 C95.4663952,258.556868 63.1808095,253.768778 38.3053231,231.956534 Z" fill-opacity="0.680397727"></path>
                        <path d="M77.2236425,251.67133 C120.93997,268.636581 164.1235,217.211503 140.13265,177.449973 C140.13265,176.919654 139.599353,176.919654 139.599353,176.389831 C141.73204,198.125969 136.400573,214.030581 126.270937,223.043526 C131.602403,210.319836 127.870327,195.475366 121.472767,182.751676 C115.075207,170.558306 106.012163,159.425078 99.0813063,147.76153 C92.1504497,135.56816 86.8194828,121.783831 90.0182628,108 C77.2231427,117.542767 68.1600992,131.856918 64.4280225,147.23121 C60.6959459,162.605503 62.8286325,179.570754 69.7594892,193.884905 C61.7625391,188.053379 55.8982756,178.510612 55.364979,168.437525 C46.8347323,178.510612 41.5037655,191.764124 42.0365623,205.018133 C42.0370621,225.694129 58.5637591,244.249343 77.2236425,251.67133 Z" opacity="0.640020461"></path>
                    </g>
                </g>
            </g>
        </g>
    </g>
</svg>